<svg width="60" height="58" viewBox="0 0 60 58" fill="none" xmlns="http://www.w3.org/2000/svg">
<path d="M31.2758 22.883L31.5942 23.1286C33.2854 24.4318 34.7112 26.0514 35.7939 27.898C37.2988 30.4653 38.0923 33.3914 38.0923 36.3718V46.6337C38.0923 48.8788 37.175 51.0247 35.5551 52.5686C32.507 55.4743 27.7608 55.5641 24.6054 52.7771L24.5074 52.6907C22.7196 51.1111 21.6947 48.8329 21.6947 46.4389V36.2141C21.6947 35.9905 21.5146 35.8089 21.2923 35.8089H10.7615C8.56647 35.8089 6.46127 34.9319 4.9093 33.3705C1.7617 30.2031 1.66756 25.0983 4.69674 21.8161L4.78458 21.7209C6.37586 19.9969 8.60918 19.0169 10.9478 19.0169H19.9398C24.0381 19.0169 28.0219 20.3758 31.2758 22.883ZM31.2758 22.883L29.8228 24.7911Z" fill="#0A3366"/>
<path d="M31.2758 22.883L31.5942 23.1286C33.2854 24.4318 34.7112 26.0514 35.7939 27.898C37.2988 30.4653 38.0923 33.3914 38.0923 36.3718V46.6337C38.0923 48.8788 37.175 51.0247 35.5551 52.5686C32.507 55.4743 27.7608 55.5641 24.6054 52.7771L24.5074 52.6907C22.7196 51.1111 21.6947 48.8329 21.6947 46.4389V36.2141C21.6947 35.9905 21.5146 35.8089 21.2923 35.8089H10.7615C8.56647 35.8089 6.46127 34.9319 4.9093 33.3705C1.7617 30.2031 1.66756 25.0983 4.69674 21.8161L4.78458 21.7209C6.37586 19.9969 8.60918 19.0169 10.9478 19.0169H19.9398C24.0381 19.0169 28.0219 20.3758 31.2758 22.883ZM31.2758 22.883L29.8228 24.7911" stroke="#0A3366" stroke-width="4.125"/>
<path d="M35.0354 4.25328L35.1335 4.3397C36.9213 5.91877 37.9462 8.19751 37.9462 10.5915V20.8162C37.9462 21.0399 38.1268 21.2215 38.349 21.2215H48.8799C51.0749 21.2215 53.1796 22.0984 54.7316 23.6599C57.8797 26.8273 57.9733 31.9321 54.9446 35.2142L54.8563 35.3094C53.265 37.0335 51.0322 38.0134 48.6931 38.0134H39.7015C35.6032 38.0134 31.619 36.6546 28.3655 34.1473L28.0472 33.9017C26.3555 32.5986 24.9297 30.979 23.8475 29.1324C22.3426 26.5651 21.5486 23.6389 21.5486 20.6585V10.3967C21.5486 8.15161 22.4663 6.00568 24.0857 4.46177C27.1339 1.5561 31.8805 1.46577 35.0354 4.25328Z" stroke="#F46700" stroke-width="4.125"/>
</svg>
