<svg width="61" height="61" viewBox="0 0 61 61" fill="none" xmlns="http://www.w3.org/2000/svg">
<g clip-path="url(#clip0_63_160)">
<g clip-path="url(#clip1_63_160)">
<g clip-path="url(#clip2_63_160)">
<mask id="mask0_63_160" style="mask-type:luminance" maskUnits="userSpaceOnUse" x="0" y="0" width="61" height="61">
<path d="M60.5 0.280273H0.5V60.2803H60.5V0.280273Z" fill="white"/>
</mask>
<g mask="url(#mask0_63_160)">
<path d="M58.2343 25.0632L33.761 25.062C32.6803 25.062 31.8043 25.9379 31.8043 27.0186V34.8368C31.8043 35.9171 32.6803 36.7934 33.7609 36.7934H47.543C46.0337 40.7098 43.217 43.9898 39.6233 46.0738L45.5 56.2468C54.9267 50.7948 60.5 41.2291 60.5 30.5206C60.5 28.9959 60.3877 27.9059 60.1627 26.6786C59.992 25.7461 59.1823 25.0632 58.2343 25.0632Z" fill="#167EE6"/>
<path d="M30.5001 48.5397C23.7554 48.5397 17.8675 44.8547 14.7052 39.4014L4.53259 45.2647C9.70933 54.237 19.4071 60.2787 30.5001 60.2787C35.942 60.2787 41.0767 58.8137 45.5 56.26V56.2464L39.6233 46.073C36.9353 47.6324 33.8248 48.5397 30.5001 48.5397Z" fill="#12B347"/>
<path d="M45.5 56.2617V56.2477L39.6233 46.0747C36.9353 47.6337 33.825 48.541 30.5 48.541V60.2804C35.942 60.2804 41.077 58.815 45.5 56.2617Z" fill="#0F993E"/>
<path d="M12.2391 30.2795C12.2391 26.955 13.1464 23.8447 14.7051 21.1568L4.53253 15.2935C1.96508 19.7029 0.5 24.8237 0.5 30.2795C0.5 35.7354 1.96508 40.8561 4.53253 45.2654L14.7051 39.4021C13.1464 36.7144 12.2391 33.604 12.2391 30.2795Z" fill="#FFD500"/>
<path d="M30.5001 12.0194C34.8983 12.0194 38.938 13.5822 42.0937 16.1818C42.872 16.823 44.0037 16.7767 44.7167 16.0637L50.256 10.5242C51.0653 9.71514 51.0077 8.39081 50.1433 7.64104C44.8563 3.05445 37.9773 0.280273 30.5001 0.280273C19.4071 0.280273 9.70936 6.32211 4.53259 15.2942L14.7052 21.1576C17.8675 15.7045 23.7554 12.0194 30.5001 12.0194Z" fill="#FF4B26"/>
<path d="M42.0937 16.1818C42.872 16.823 44.0037 16.7768 44.7167 16.0637L50.256 10.5242C51.065 9.71514 51.0073 8.39081 50.1433 7.64104C44.8563 3.05434 37.9773 0.280273 30.5 0.280273V12.0194C34.898 12.0194 38.938 13.5822 42.0937 16.1818Z" fill="#D93F21"/>
</g>
</g>
</g>
</g>
<defs>
<clipPath id="clip0_63_160">
<rect width="60" height="60" fill="white" transform="translate(0.5 0.280273)"/>
</clipPath>
<clipPath id="clip1_63_160">
<rect width="60" height="60" fill="white" transform="translate(0.5 0.280273)"/>
</clipPath>
<clipPath id="clip2_63_160">
<rect width="60" height="60" fill="white" transform="translate(0.5 0.280273)"/>
</clipPath>
</defs>
</svg>
