<svg width="171" height="56" viewBox="0 0 171 56" fill="none" xmlns="http://www.w3.org/2000/svg">
<path d="M27.3594 21.5793L27.63 21.7868C29.0676 22.8877 30.2795 24.256 31.1998 25.8161C32.4789 27.985 33.1534 30.4571 33.1534 32.975V41.6445C33.1534 43.5412 32.3737 45.3542 30.9968 46.6585C28.4059 49.1133 24.3716 49.1892 21.6896 46.8346L21.6062 46.7616C20.0866 45.4272 19.2154 43.5024 19.2154 41.4799V32.8418C19.2154 32.6528 19.0624 32.4994 18.8734 32.4994H9.92219C8.05645 32.4994 6.26703 31.7585 4.94785 30.4394C2.27239 27.7635 2.19237 23.4508 4.76718 20.678L4.84184 20.5975C6.19443 19.141 8.09275 18.3131 10.0806 18.3131H17.7238C21.2074 18.3131 24.5936 19.4611 27.3594 21.5793ZM27.3594 21.5793L26.1244 23.1913Z" fill="#0A3366"/>
<path d="M27.3594 21.5793L27.63 21.7868C29.0676 22.8877 30.2795 24.256 31.1998 25.8161C32.4789 27.985 33.1534 30.4571 33.1534 32.975V41.6445C33.1534 43.5412 32.3737 45.3542 30.9968 46.6585C28.4059 49.1133 24.3716 49.1892 21.6896 46.8346L21.6062 46.7616C20.0866 45.4272 19.2154 43.5024 19.2154 41.4799V32.8418C19.2154 32.6528 19.0624 32.4994 18.8734 32.4994H9.92219C8.05645 32.4994 6.26703 31.7585 4.94785 30.4394C2.27239 27.7635 2.19237 23.4508 4.76718 20.678L4.84184 20.5975C6.19443 19.141 8.09275 18.3131 10.0806 18.3131H17.7238C21.2074 18.3131 24.5936 19.4611 27.3594 21.5793ZM27.3594 21.5793L26.1244 23.1913" stroke="#0A3366" stroke-width="4.125"/>
<path d="M30.5551 5.84036L30.6384 5.91337V5.91379C32.1581 7.24783 33.0293 9.17255 33.0293 11.195V19.8332C33.0293 20.0221 33.1827 20.1756 33.3716 20.1756H42.3229C44.1886 20.1756 45.9776 20.9164 47.2968 22.2356C49.9727 24.9115 50.0523 29.2242 47.4779 31.997L47.4028 32.0774C46.0502 33.534 44.1523 34.3619 42.1641 34.3619H34.5213C31.0377 34.3619 27.6511 33.2139 24.8857 31.0957L24.6151 30.8882C23.1771 29.7872 21.9652 28.419 21.0453 26.8589C19.7662 24.69 19.0913 22.2179 19.0913 19.7V11.0305C19.0913 9.13378 19.8713 7.32084 21.2479 6.0165C23.8388 3.56171 27.8734 3.4854 30.5551 5.84036ZM30.5551 5.84036L29.1943 7.39014" stroke="#F46700" stroke-width="4.125"/>
<path d="M150.993 18.76C150.993 16.868 151.345 15.207 152.049 13.777C152.775 12.347 153.754 11.247 154.986 10.477C156.218 9.707 157.593 9.322 159.111 9.322C160.409 9.322 161.542 9.586 162.51 10.114C163.5 10.642 164.259 11.335 164.787 12.193V9.586H170.43V28H164.787V25.393C164.237 26.251 163.467 26.944 162.477 27.472C161.509 28 160.376 28.264 159.078 28.264C157.582 28.264 156.218 27.879 154.986 27.109C153.754 26.317 152.775 25.206 152.049 23.776C151.345 22.324 150.993 20.652 150.993 18.76ZM164.787 18.793C164.787 17.385 164.391 16.274 163.599 15.46C162.829 14.646 161.883 14.239 160.761 14.239C159.639 14.239 158.682 14.646 157.89 15.46C157.12 16.252 156.735 17.352 156.735 18.76C156.735 20.168 157.12 21.29 157.89 22.126C158.682 22.94 159.639 23.347 160.761 23.347C161.883 23.347 162.829 22.94 163.599 22.126C164.391 21.312 164.787 20.201 164.787 18.793Z" fill="#0A3366"/>
<path d="M145.221 7.672C144.231 7.672 143.417 7.386 142.779 6.814C142.163 6.22 141.855 5.494 141.855 4.636C141.855 3.756 142.163 3.03 142.779 2.458C143.417 1.864 144.231 1.567 145.221 1.567C146.189 1.567 146.981 1.864 147.597 2.458C148.235 3.03 148.554 3.756 148.554 4.636C148.554 5.494 148.235 6.22 147.597 6.814C146.981 7.386 146.189 7.672 145.221 7.672ZM148.026 9.586V28H142.383V9.586H148.026Z" fill="#0A3366"/>
<path d="M131.473 28.264C129.867 28.264 128.437 27.989 127.183 27.439C125.929 26.889 124.939 26.141 124.213 25.195C123.487 24.227 123.08 23.149 122.992 21.961H128.569C128.635 22.599 128.932 23.116 129.46 23.512C129.988 23.908 130.637 24.106 131.407 24.106C132.111 24.106 132.65 23.974 133.024 23.71C133.42 23.424 133.618 23.061 133.618 22.621C133.618 22.093 133.343 21.708 132.793 21.466C132.243 21.202 131.352 20.916 130.12 20.608C128.8 20.3 127.7 19.981 126.82 19.651C125.94 19.299 125.181 18.76 124.543 18.034C123.905 17.286 123.586 16.285 123.586 15.031C123.586 13.975 123.872 13.018 124.444 12.16C125.038 11.28 125.896 10.587 127.018 10.081C128.162 9.575 129.515 9.322 131.077 9.322C133.387 9.322 135.202 9.894 136.522 11.038C137.864 12.182 138.634 13.7 138.832 15.592H133.618C133.53 14.954 133.244 14.448 132.76 14.074C132.298 13.7 131.682 13.513 130.912 13.513C130.252 13.513 129.746 13.645 129.394 13.909C129.042 14.151 128.866 14.492 128.866 14.932C128.866 15.46 129.141 15.856 129.691 16.12C130.263 16.384 131.143 16.648 132.331 16.912C133.695 17.264 134.806 17.616 135.664 17.968C136.522 18.298 137.27 18.848 137.908 19.618C138.568 20.366 138.909 21.378 138.931 22.654C138.931 23.732 138.623 24.7 138.007 25.558C137.413 26.394 136.544 27.054 135.4 27.538C134.278 28.022 132.969 28.264 131.473 28.264Z" fill="#0A3366"/>
<path d="M113.071 28.264C111.465 28.264 110.035 27.989 108.781 27.439C107.527 26.889 106.537 26.141 105.811 25.195C105.085 24.227 104.678 23.149 104.59 21.961H110.167C110.233 22.599 110.53 23.116 111.058 23.512C111.586 23.908 112.235 24.106 113.005 24.106C113.709 24.106 114.248 23.974 114.622 23.71C115.018 23.424 115.216 23.061 115.216 22.621C115.216 22.093 114.941 21.708 114.391 21.466C113.841 21.202 112.95 20.916 111.718 20.608C110.398 20.3 109.298 19.981 108.418 19.651C107.538 19.299 106.779 18.76 106.141 18.034C105.503 17.286 105.184 16.285 105.184 15.031C105.184 13.975 105.47 13.018 106.042 12.16C106.636 11.28 107.494 10.587 108.616 10.081C109.76 9.575 111.113 9.322 112.675 9.322C114.985 9.322 116.8 9.894 118.12 11.038C119.462 12.182 120.232 13.7 120.43 15.592H115.216C115.128 14.954 114.842 14.448 114.358 14.074C113.896 13.7 113.28 13.513 112.51 13.513C111.85 13.513 111.344 13.645 110.992 13.909C110.64 14.151 110.464 14.492 110.464 14.932C110.464 15.46 110.739 15.856 111.289 16.12C111.861 16.384 112.741 16.648 113.929 16.912C115.293 17.264 116.404 17.616 117.262 17.968C118.12 18.298 118.868 18.848 119.506 19.618C120.166 20.366 120.507 21.378 120.529 22.654C120.529 23.732 120.221 24.7 119.605 25.558C119.011 26.394 118.142 27.054 116.998 27.538C115.876 28.022 114.567 28.264 113.071 28.264Z" fill="#0A3366"/>
<path d="M82.0607 18.76C82.0607 16.868 82.4127 15.207 83.1167 13.777C83.8427 12.347 84.8217 11.247 86.0537 10.477C87.2857 9.707 88.6607 9.322 90.1787 9.322C91.4767 9.322 92.6097 9.586 93.5777 10.114C94.5677 10.642 95.3267 11.335 95.8547 12.193V9.586H101.498V28H95.8547V25.393C95.3047 26.251 94.5347 26.944 93.5447 27.472C92.5767 28 91.4437 28.264 90.1457 28.264C88.6497 28.264 87.2857 27.879 86.0537 27.109C84.8217 26.317 83.8427 25.206 83.1167 23.776C82.4127 22.324 82.0607 20.652 82.0607 18.76ZM95.8547 18.793C95.8547 17.385 95.4587 16.274 94.6667 15.46C93.8967 14.646 92.9507 14.239 91.8287 14.239C90.7067 14.239 89.7497 14.646 88.9577 15.46C88.1877 16.252 87.8027 17.352 87.8027 18.76C87.8027 20.168 88.1877 21.29 88.9577 22.126C89.7497 22.94 90.7067 23.347 91.8287 23.347C92.9507 23.347 93.8967 22.94 94.6667 22.126C95.4587 21.312 95.8547 20.201 95.8547 18.793Z" fill="#0A3366"/>
<path d="M57.089 16.384C57.089 14.096 57.584 12.061 58.574 10.279C59.564 8.475 60.939 7.078 62.699 6.088C64.481 5.076 66.494 4.57 68.738 4.57C71.488 4.57 73.842 5.296 75.8 6.748C77.758 8.2 79.067 10.18 79.727 12.688H73.523C73.061 11.72 72.401 10.983 71.543 10.477C70.707 9.971 69.75 9.718 68.672 9.718C66.934 9.718 65.526 10.323 64.448 11.533C63.37 12.743 62.831 14.36 62.831 16.384C62.831 18.408 63.37 20.025 64.448 21.235C65.526 22.445 66.934 23.05 68.672 23.05C69.75 23.05 70.707 22.797 71.543 22.291C72.401 21.785 73.061 21.048 73.523 20.08H79.727C79.067 22.588 77.758 24.568 75.8 26.02C73.842 27.45 71.488 28.165 68.738 28.165C66.494 28.165 64.481 27.67 62.699 26.68C60.939 25.668 59.564 24.271 58.574 22.489C57.584 20.707 57.089 18.672 57.089 16.384Z" fill="#0A3366"/>
<path d="M105.058 37.6178C106.991 37.6178 108.557 38.2075 109.756 39.3868C110.955 40.5468 111.554 42.2288 111.554 44.4328V53.7998H108.944V44.8098C108.944 43.2245 108.548 42.0161 107.755 41.1848C106.962 40.3341 105.88 39.9088 104.507 39.9088C103.115 39.9088 102.003 40.3438 101.172 41.2138C100.36 42.0838 99.9541 43.3501 99.9541 45.0128V53.7998H97.3151V37.9078H99.9541V40.1698C100.476 39.3578 101.182 38.7295 102.071 38.2848C102.98 37.8401 103.975 37.6178 105.058 37.6178Z" fill="#F46700"/>
<path d="M91.5413 35.3268C91.0386 35.3268 90.6133 35.1528 90.2653 34.8048C89.9173 34.4568 89.7433 34.0315 89.7433 33.5288C89.7433 33.0261 89.9173 32.6008 90.2653 32.2528C90.6133 31.9048 91.0386 31.7308 91.5413 31.7308C92.0246 31.7308 92.4306 31.9048 92.7593 32.2528C93.1073 32.6008 93.2813 33.0261 93.2813 33.5288C93.2813 34.0315 93.1073 34.4568 92.7593 34.8048C92.4306 35.1528 92.0246 35.3268 91.5413 35.3268ZM92.8173 37.9078V53.7998H90.1783V37.9078H92.8173Z" fill="#F46700"/>
<path d="M84.1275 53.7998L77.8925 46.7818V53.7998H75.2535V32.3398H77.8925V44.9548L84.0115 37.9078H87.6945L80.2125 45.8248L87.7235 53.7998H84.1275Z" fill="#F46700"/>
<path d="M64.642 54.0028C63.308 54.0028 62.1093 53.7708 61.046 53.3068C60.002 52.8235 59.1803 52.1661 58.581 51.3348C57.9816 50.4841 57.6723 49.5078 57.653 48.4058H60.466C60.5626 49.3531 60.9493 50.1555 61.626 50.8128C62.322 51.4508 63.3273 51.7698 64.642 51.7698C65.8986 51.7698 66.8846 51.4605 67.6 50.8418C68.3346 50.2038 68.702 49.3918 68.702 48.4058C68.702 47.6325 68.4893 47.0041 68.064 46.5208C67.6386 46.0375 67.107 45.6701 66.469 45.4188C65.831 45.1675 64.9706 44.8968 63.888 44.6068C62.554 44.2588 61.481 43.9108 60.669 43.5628C59.8763 43.2148 59.19 42.6735 58.61 41.9388C58.0493 41.1848 57.769 40.1795 57.769 38.9228C57.769 37.8208 58.0493 36.8445 58.61 35.9938C59.1706 35.1431 59.9536 34.4858 60.959 34.0218C61.9836 33.5578 63.1533 33.3258 64.468 33.3258C66.3626 33.3258 67.9093 33.7995 69.108 34.7468C70.326 35.6941 71.0123 36.9508 71.167 38.5168H68.267C68.1703 37.7435 67.7643 37.0668 67.049 36.4868C66.3336 35.8875 65.3863 35.5878 64.207 35.5878C63.105 35.5878 62.206 35.8778 61.51 36.4578C60.814 37.0185 60.466 37.8111 60.466 38.8358C60.466 39.5705 60.669 40.1698 61.075 40.6338C61.5003 41.0978 62.0126 41.4555 62.612 41.7068C63.2306 41.9388 64.091 42.2095 65.193 42.5188C66.527 42.8861 67.6 43.2535 68.412 43.6208C69.224 43.9688 69.92 44.5198 70.5 45.2738C71.08 46.0085 71.37 47.0138 71.37 48.2898C71.37 49.2758 71.109 50.2038 70.587 51.0738C70.065 51.9438 69.2916 52.6495 68.267 53.1908C67.2423 53.7321 66.034 54.0028 64.642 54.0028Z" fill="#F46700"/>
</svg>
