<svg width="235" height="79" viewBox="0 0 235 79" fill="none" xmlns="http://www.w3.org/2000/svg">
<path d="M207.623 28.1603C207.623 25.5926 208.104 23.3383 209.068 21.3976C210.061 19.4569 211.401 17.9641 213.087 16.9191C214.773 15.8741 216.654 15.3516 218.731 15.3516C220.508 15.3516 222.058 15.7098 223.383 16.4264C224.737 17.143 225.776 18.0835 226.499 19.2479V15.7098H234.221V40.7003H226.499V37.1622C225.746 38.3266 224.692 39.2671 223.337 39.9837C222.013 40.7003 220.462 41.0586 218.686 41.0586C216.639 41.0586 214.773 40.5361 213.087 39.4911C211.401 38.4162 210.061 36.9084 209.068 34.9677C208.104 32.9971 207.623 30.728 207.623 28.1603ZM226.499 28.2051C226.499 26.2942 225.957 24.7864 224.873 23.6817C223.819 22.577 222.525 22.0246 220.989 22.0246C219.454 22.0246 218.144 22.577 217.061 23.6817C216.007 24.7566 215.48 26.2494 215.48 28.1603C215.48 30.0711 216.007 31.5938 217.061 32.7284C218.144 33.8331 219.454 34.3855 220.989 34.3855C222.525 34.3855 223.819 33.8331 224.873 32.7284C225.957 31.6237 226.499 30.1159 226.499 28.2051Z" fill="white"/>
<path d="M199.723 13.1125C198.369 13.1125 197.255 12.7244 196.382 11.9481C195.539 11.1419 195.117 10.1566 195.117 8.99222C195.117 7.79794 195.539 6.81265 196.382 6.03636C197.255 5.23022 198.369 4.82715 199.723 4.82715C201.048 4.82715 202.132 5.23022 202.975 6.03636C203.848 6.81265 204.284 7.79794 204.284 8.99222C204.284 10.1566 203.848 11.1419 202.975 11.9481C202.132 12.7244 201.048 13.1125 199.723 13.1125ZM203.562 15.7101V40.7005H195.84V15.7101H203.562Z" fill="white"/>
<path d="M180.91 41.0586C178.712 41.0586 176.755 40.6854 175.039 39.9389C173.323 39.1925 171.969 38.1774 170.975 36.8935C169.982 35.5798 169.425 34.1168 169.304 32.5045H176.936C177.026 33.3704 177.433 34.072 178.155 34.6094C178.878 35.1469 179.766 35.4156 180.82 35.4156C181.783 35.4156 182.521 35.2364 183.032 34.8781C183.574 34.49 183.845 33.9974 183.845 33.4002C183.845 32.6836 183.469 32.1611 182.716 31.8327C181.964 31.4744 180.744 31.0863 179.058 30.6683C177.252 30.2503 175.747 29.8174 174.543 29.3695C173.338 28.8918 172.3 28.1603 171.427 27.175C170.554 26.1599 170.117 24.8014 170.117 23.0995C170.117 21.6664 170.509 20.3676 171.291 19.2031C172.104 18.0088 173.278 17.0683 174.814 16.3816C176.379 15.6949 178.231 15.3516 180.368 15.3516C183.529 15.3516 186.013 16.1278 187.819 17.6804C189.655 19.233 190.709 21.2931 190.98 23.8608H183.845C183.725 22.995 183.333 22.3083 182.671 21.8007C182.039 21.2931 181.196 21.0394 180.142 21.0394C179.239 21.0394 178.547 21.2185 178.065 21.5768C177.583 21.9052 177.342 22.368 177.342 22.9651C177.342 23.6817 177.719 24.2191 178.471 24.5774C179.254 24.9357 180.458 25.294 182.084 25.6523C183.951 26.13 185.471 26.6077 186.645 27.0854C187.819 27.5333 188.843 28.2797 189.716 29.3247C190.619 30.3399 191.085 31.7133 191.116 33.445C191.116 34.908 190.694 36.2217 189.851 37.3861C189.038 38.5207 187.849 39.4164 186.284 40.0733C184.748 40.7301 182.957 41.0586 180.91 41.0586Z" fill="white"/>
<path d="M155.729 41.0586C153.531 41.0586 151.574 40.6854 149.858 39.9389C148.142 39.1925 146.788 38.1774 145.794 36.8935C144.801 35.5798 144.244 34.1168 144.123 32.5045H151.755C151.845 33.3704 152.252 34.072 152.974 34.6094C153.697 35.1469 154.585 35.4156 155.639 35.4156C156.602 35.4156 157.34 35.2364 157.851 34.8781C158.393 34.49 158.664 33.9974 158.664 33.4002C158.664 32.6836 158.288 32.1611 157.535 31.8327C156.783 31.4744 155.563 31.0863 153.878 30.6683C152.071 30.2503 150.566 29.8174 149.362 29.3695C148.158 28.8918 147.119 28.1603 146.246 27.175C145.373 26.1599 144.936 24.8014 144.936 23.0995C144.936 21.6664 145.328 20.3676 146.11 19.2031C146.923 18.0088 148.097 17.0683 149.633 16.3816C151.198 15.6949 153.05 15.3516 155.187 15.3516C158.348 15.3516 160.832 16.1278 162.638 17.6804C164.475 19.233 165.528 21.2931 165.799 23.8608H158.664C158.544 22.995 158.152 22.3083 157.49 21.8007C156.858 21.2931 156.015 21.0394 154.961 21.0394C154.058 21.0394 153.366 21.2185 152.884 21.5768C152.402 21.9052 152.162 22.368 152.162 22.9651C152.162 23.6817 152.538 24.2191 153.29 24.5774C154.073 24.9357 155.277 25.294 156.903 25.6523C158.77 26.13 160.29 26.6077 161.464 27.0854C162.638 27.5333 163.662 28.2797 164.535 29.3247C165.438 30.3399 165.905 31.7133 165.935 33.445C165.935 34.908 165.513 36.2217 164.67 37.3861C163.857 38.5207 162.668 39.4164 161.103 40.0733C159.567 40.7301 157.776 41.0586 155.729 41.0586Z" fill="white"/>
<path d="M113.294 28.1603C113.294 25.5926 113.775 23.3383 114.739 21.3976C115.732 19.4569 117.072 17.9641 118.758 16.9191C120.444 15.8741 122.325 15.3516 124.403 15.3516C126.179 15.3516 127.729 15.7098 129.054 16.4264C130.409 17.143 131.447 18.0835 132.17 19.2479V15.7098H139.892V40.7003H132.17V37.1622C131.417 38.3266 130.363 39.2671 129.009 39.9837C127.684 40.7003 126.134 41.0586 124.357 41.0586C122.31 41.0586 120.444 40.5361 118.758 39.4911C117.072 38.4162 115.732 36.9084 114.739 34.9677C113.775 32.9971 113.294 30.728 113.294 28.1603ZM132.17 28.2051C132.17 26.2942 131.628 24.7864 130.544 23.6817C129.49 22.577 128.196 22.0246 126.66 22.0246C125.125 22.0246 123.815 22.577 122.732 23.6817C121.678 24.7566 121.151 26.2494 121.151 28.1603C121.151 30.0711 121.678 31.5938 122.732 32.7284C123.815 33.8331 125.125 34.3855 126.66 34.3855C128.196 34.3855 129.49 33.8331 130.544 32.7284C131.628 31.6237 132.17 30.1159 132.17 28.2051Z" fill="white"/>
<path d="M79.1218 24.9356C79.1218 21.8305 79.7992 19.0687 81.1539 16.6503C82.5087 14.202 84.3902 12.3061 86.7987 10.9625C89.2372 9.58906 91.9918 8.90234 95.0626 8.90234C98.8257 8.90234 102.047 9.88763 104.726 11.8582C107.406 13.8288 109.197 16.5159 110.1 19.9196H101.61C100.978 18.6059 100.075 17.6057 98.901 16.919C97.757 16.2323 96.4474 15.8889 94.9722 15.8889C92.5939 15.8889 90.6672 16.71 89.192 18.3521C87.7169 19.9943 86.9793 22.1888 86.9793 24.9356C86.9793 27.6825 87.7169 29.877 89.192 31.5191C90.6672 33.1613 92.5939 33.9823 94.9722 33.9823C96.4474 33.9823 97.757 33.639 98.901 32.9523C100.075 32.2656 100.978 31.2653 101.61 29.9516H110.1C109.197 33.3553 107.406 36.0425 104.726 38.0131C102.047 39.9538 98.8257 40.9241 95.0626 40.9241C91.9918 40.9241 89.2372 40.2523 86.7987 38.9088C84.3902 37.5353 82.5087 35.6394 81.1539 33.221C79.7992 30.8026 79.1218 28.0408 79.1218 24.9356Z" fill="white"/>
<path d="M144.764 53.7529C147.409 53.7529 149.552 54.5532 151.192 56.1537C152.833 57.728 153.653 60.0107 153.653 63.0019V75.7142H150.081V63.5135C150.081 61.362 149.539 59.7221 148.454 58.5939C147.37 57.4394 145.888 56.8621 144.01 56.8621C142.105 56.8621 140.584 57.4525 139.446 58.6332C138.335 59.8139 137.779 61.5325 137.779 63.789V75.7142H134.168V54.1465H137.779V57.2164C138.494 56.1144 139.459 55.2616 140.676 54.6581C141.92 54.0547 143.282 53.7529 144.764 53.7529Z" fill="#F46700"/>
<path d="M126.267 50.644C125.579 50.644 124.997 50.4078 124.521 49.9355C124.045 49.4632 123.807 48.886 123.807 48.2038C123.807 47.5216 124.045 46.9444 124.521 46.4721C124.997 45.9998 125.579 45.7637 126.267 45.7637C126.928 45.7637 127.484 45.9998 127.934 46.4721C128.41 46.9444 128.648 47.5216 128.648 48.2038C128.648 48.886 128.41 49.4632 127.934 49.9355C127.484 50.4078 126.928 50.644 126.267 50.644ZM128.013 54.1467V75.7145H124.402V54.1467H128.013Z" fill="#F46700"/>
<path d="M116.122 75.7141L107.59 66.1897V75.7141H103.979V46.5898H107.59V63.7102L115.963 54.1464H121.003L110.765 64.8909L121.043 75.7141H116.122Z" fill="#F46700"/>
<path d="M89.4574 75.9899C87.632 75.9899 85.9917 75.675 84.5366 75.0453C83.108 74.3893 81.9836 73.4972 81.1634 72.369C80.3433 71.2145 79.92 69.8895 79.8936 68.3939H83.7429C83.8752 69.6796 84.4043 70.7685 85.3303 71.6606C86.2827 72.5264 87.6584 72.9594 89.4574 72.9594C91.1771 72.9594 92.5264 72.5396 93.5052 71.6999C94.5106 70.8341 95.0132 69.7321 95.0132 68.3939C95.0132 67.3444 94.7222 66.4917 94.1402 65.8357C93.5582 65.1798 92.8306 64.6812 91.9576 64.3402C91.0845 63.9991 89.9072 63.6317 88.4257 63.2382C86.6002 62.7659 85.1319 62.2936 84.0207 61.8213C82.936 61.349 81.9968 60.6143 81.2031 59.6173C80.4359 58.594 80.0523 57.2296 80.0523 55.5242C80.0523 54.0286 80.4359 52.7036 81.2031 51.5491C81.9704 50.3946 83.0418 49.5025 84.4176 48.8728C85.8197 48.2431 87.4203 47.9282 89.2193 47.9282C91.812 47.9282 93.9285 48.5711 95.5688 49.8567C97.2356 51.1424 98.1747 52.8479 98.3864 54.9732H94.418C94.2857 53.9236 93.7301 53.0053 92.7512 52.2182C91.7724 51.4048 90.476 50.9981 88.8622 50.9981C87.3542 50.9981 86.124 51.3917 85.1716 52.1788C84.2191 52.9397 83.7429 54.0155 83.7429 55.4061C83.7429 56.4031 84.0207 57.2165 84.5763 57.8462C85.1583 58.4759 85.8594 58.9613 86.6796 59.3024C87.5262 59.6173 88.7035 59.9846 90.2114 60.4044C92.0369 60.903 93.5052 61.4015 94.6164 61.9C95.7276 62.3723 96.68 63.1201 97.4737 64.1434C98.2673 65.1404 98.6642 66.5048 98.6642 68.2365C98.6642 69.5747 98.307 70.8341 97.5927 72.0148C96.8784 73.1955 95.8202 74.1532 94.418 74.8879C93.0158 75.6225 91.3623 75.9899 89.4574 75.9899Z" fill="#F46700"/>
<path d="M39.8006 30.3879L40.1844 30.6813C42.2231 32.2382 43.9418 34.1731 45.247 36.3793C47.0611 39.4465 48.0175 42.9424 48.0175 46.503V58.763C48.0175 61.4452 46.9119 64.0089 44.9592 65.8534C41.2848 69.3248 35.5635 69.4322 31.7598 66.1025L31.6416 65.9993C29.4865 64.1122 28.251 61.3903 28.251 58.5302V46.3146C28.251 46.0475 28.0339 45.8305 27.766 45.8305H15.0715C12.4256 45.8305 9.88782 44.7828 8.01699 42.9173C4.22271 39.1332 4.10922 33.0345 7.76076 29.1133L7.86665 28.9995C9.78486 26.9398 12.477 25.769 15.2961 25.769H26.1356C31.0759 25.769 35.8782 27.3925 39.8006 30.3879ZM39.8006 30.3879L38.0491 32.6675" stroke="white" stroke-width="10"/>
<path d="M44.3327 8.13096L44.4509 8.23421V8.2348C46.606 10.1213 47.8415 12.8432 47.8415 15.7032V27.9188C47.8415 28.186 48.0591 28.403 48.3271 28.403H61.0216C63.6675 28.403 66.2047 29.4507 68.0755 31.3162C71.8704 35.1002 71.9833 41.199 68.3323 45.1202L68.2258 45.2339C66.3076 47.2937 63.616 48.4644 60.7963 48.4644H49.9575C45.0171 48.4644 40.2143 46.841 36.2924 43.8456L35.9087 43.5522C33.8694 41.9952 32.1506 40.0603 30.8461 37.8542C29.032 34.787 28.075 31.2911 28.075 27.7304V15.4705C28.075 12.7883 29.1812 10.2246 31.1333 8.38005C34.8077 4.90863 40.5296 4.80071 44.3327 8.13096ZM44.3327 8.13096L42.4028 10.3226" stroke="#F46700" stroke-width="10"/>
</svg>
