<svg width="18" height="19" viewBox="0 0 18 19" fill="none" xmlns="http://www.w3.org/2000/svg">
<path d="M0 9.39014C0 4.41957 4.02944 0.390137 9 0.390137C13.9706 0.390137 18 4.41957 18 9.39014V18.3901H9C4.02944 18.3901 0 14.3607 0 9.39014Z" fill="#F46700"/>
<path d="M3.5332 9.61865C3.43945 9.51318 3.32812 9.44287 3.19922 9.40771C3.07031 9.37256 2.93848 9.37256 2.80371 9.40771C2.66895 9.44287 2.55469 9.50732 2.46094 9.60107C2.36719 9.69482 2.30273 9.80908 2.26758 9.94385C2.23242 10.0786 2.23242 10.2104 2.26758 10.3394C2.30273 10.4683 2.37305 10.5796 2.47852 10.6733L6.22266 14.4175C6.375 14.5698 6.55078 14.646 6.75 14.646C6.94922 14.646 7.125 14.5698 7.27734 14.4175L15.5215 6.17334C15.627 6.07959 15.6973 5.96826 15.7324 5.83936C15.7676 5.71045 15.7676 5.57861 15.7324 5.44385C15.6973 5.30908 15.6328 5.19482 15.5391 5.10107C15.4453 5.00732 15.3311 4.94287 15.1963 4.90771C15.0615 4.87256 14.9297 4.87256 14.8008 4.90771C14.6719 4.94287 14.5605 5.01318 14.4668 5.11865L6.75 12.8354L3.5332 9.61865Z" fill="white"/>
</svg>
